<svg xmlns="http://www.w3.org/2000/svg" xmlns:xlink="http://www.w3.org/1999/xlink" width="531" zoomAndPan="magnify" viewBox="0 0 398.25 139.500001" height="186" preserveAspectRatio="xMidYMid meet" version="1.0"><defs><g/><clipPath id="eadaf3a152"><path d="M 0.335938 0 L 397.164062 0 L 397.164062 139 L 0.335938 139 Z M 0.335938 0 " clip-rule="nonzero"/></clipPath><clipPath id="3fb618f289"><path d="M 62 29.65625 L 97 29.65625 L 97 109.617188 L 62 109.617188 Z M 62 29.65625 " clip-rule="nonzero"/></clipPath><clipPath id="eef74e4574"><path d="M 108 41 L 142.546875 41 L 142.546875 99 L 108 99 Z M 108 41 " clip-rule="nonzero"/></clipPath></defs><g clip-path="url(#eadaf3a152)"><path fill="#ffffff" d="M 0.335938 0 L 397.914062 0 L 397.914062 146.476562 L 0.335938 146.476562 Z M 0.335938 0 " fill-opacity="1" fill-rule="nonzero"/><path fill="#ffffff" d="M 0.335938 0 L 397.164062 0 L 397.164062 139 L 0.335938 139 Z M 0.335938 0 " fill-opacity="1" fill-rule="nonzero"/><path fill="#ffffff" d="M 0.335938 0 L 397.164062 0 L 397.164062 139 L 0.335938 139 Z M 0.335938 0 " fill-opacity="1" fill-rule="nonzero"/></g><g clip-path="url(#3fb618f289)"><path fill="#15aad0" d="M 92.988281 29.945312 C 92.410156 29.765625 91.785156 29.65625 91.183594 29.65625 C 88.730469 29.65625 86.546875 31.238281 85.769531 33.558594 L 62.945312 102.097656 C 62.746094 102.679688 62.65625 103.28125 62.65625 103.90625 C 62.65625 107.050781 65.242188 109.617188 68.363281 109.617188 C 70.8125 109.617188 72.996094 108.035156 73.777344 105.714844 L 96.597656 37.175781 C 96.800781 36.59375 96.890625 35.96875 96.890625 35.367188 C 96.890625 32.914062 95.304688 30.726562 92.988281 29.945312 " fill-opacity="1" fill-rule="nonzero"/></g><path fill="#15aad0" d="M 49.574219 42.75 C 48.503906 41.679688 47.054688 41.078125 45.539062 41.078125 C 44.023438 41.078125 42.574219 41.679688 41.503906 42.75 L 18.683594 65.597656 C 17.613281 66.667969 17.011719 68.121094 17.011719 69.636719 C 17.011719 71.152344 17.613281 72.605469 18.683594 73.675781 L 41.503906 96.523438 C 42.574219 97.546875 44 98.128906 45.472656 98.128906 C 48.59375 98.128906 51.179688 95.539062 51.179688 92.417969 C 51.179688 90.945312 50.597656 89.515625 49.574219 88.445312 L 30.785156 69.636719 L 49.574219 50.828125 C 50.644531 49.757812 51.246094 48.308594 51.246094 46.789062 C 51.246094 45.273438 50.644531 43.824219 49.574219 42.75 " fill-opacity="1" fill-rule="nonzero"/><g clip-path="url(#eef74e4574)"><path fill="#15aad0" d="M 140.859375 65.597656 L 118.039062 42.75 C 116.96875 41.726562 115.542969 41.144531 114.070312 41.144531 C 110.953125 41.144531 108.367188 43.734375 108.367188 46.855469 C 108.367188 48.328125 108.945312 49.757812 109.972656 50.828125 L 128.757812 69.636719 L 109.972656 88.445312 C 108.855469 89.515625 108.234375 91.011719 108.234375 92.550781 C 108.234375 95.695312 110.796875 98.261719 113.9375 98.261719 C 115.476562 98.261719 116.96875 97.636719 118.039062 96.523438 L 140.859375 73.675781 C 141.929688 72.605469 142.53125 71.152344 142.53125 69.636719 C 142.53125 68.121094 141.929688 66.667969 140.859375 65.597656 " fill-opacity="1" fill-rule="nonzero"/></g><g fill="#000000" fill-opacity="1"><g transform="translate(150.489052, 80.205542)"><g><path d="M 5.421875 0 C 5.796875 0 5.992188 -0.195312 5.992188 -0.570312 L 5.992188 -11.929688 L 12.070312 -4.027344 C 12.320312 -3.695312 12.628906 -3.695312 12.878906 -4.027344 L 18.984375 -11.960938 L 18.984375 -0.570312 C 18.984375 -0.195312 19.179688 0 19.554688 0 L 22.257812 0 C 22.636719 0 22.832031 -0.195312 22.832031 -0.570312 L 22.832031 -20.949219 C 22.832031 -22.023438 22.078125 -22.257812 21.4375 -21.410156 L 12.476562 -9.5625 L 3.539062 -21.410156 C 2.886719 -22.273438 2.148438 -22.023438 2.148438 -20.949219 L 2.148438 -0.570312 C 2.148438 -0.195312 2.339844 0 2.71875 0 Z M 5.421875 0 "/></g></g><g transform="translate(175.466562, 80.205542)"><g><path d="M 3.695312 -16.183594 C 4.949219 -16.183594 5.882812 -17.128906 5.882812 -18.382812 C 5.882812 -19.625 4.949219 -20.601562 3.695312 -20.601562 C 2.4375 -20.601562 1.492188 -19.625 1.492188 -18.382812 C 1.492188 -17.128906 2.4375 -16.183594 3.695312 -16.183594 Z M 4.933594 0 C 5.308594 0 5.503906 -0.195312 5.503906 -0.570312 L 5.503906 -14.1875 C 5.503906 -14.550781 5.308594 -14.761719 4.933594 -14.761719 L 2.480469 -14.761719 C 2.117188 -14.761719 1.910156 -14.550781 1.910156 -14.1875 L 1.910156 -0.570312 C 1.910156 -0.195312 2.117188 0 2.480469 0 Z M 4.933594 0 "/></g></g><g transform="translate(182.909636, 80.205542)"><g/></g><g transform="translate(191.467779, 80.205542)"><g><path d="M 5.464844 0 C 5.839844 0 6.035156 -0.195312 6.035156 -0.570312 L 6.035156 -6.941406 L 10.203125 -6.941406 C 15.109375 -6.941406 17.742188 -9.546875 17.742188 -14.257812 C 17.742188 -18.566406 15.527344 -21.410156 9.632812 -21.410156 L 2.691406 -21.410156 C 2.3125 -21.410156 2.117188 -21.214844 2.117188 -20.835938 L 2.117188 -0.570312 C 2.117188 -0.195312 2.3125 0 2.691406 0 Z M 6.035156 -17.9375 L 9.128906 -17.9375 C 10.664062 -17.9375 13.855469 -17.910156 13.855469 -14.230469 C 13.855469 -10.441406 10.496094 -10.398438 9.128906 -10.398438 L 6.035156 -10.398438 Z M 6.035156 -17.9375 "/></g></g><g transform="translate(210.242726, 80.205542)"><g><path d="M 9.128906 0.320312 C 13.660156 0.320312 17.074219 -2.855469 17.074219 -7.375 C 17.074219 -11.902344 13.660156 -15.066406 9.128906 -15.066406 C 4.640625 -15.066406 1.226562 -11.902344 1.226562 -7.375 C 1.226562 -2.855469 4.640625 0.320312 9.128906 0.320312 Z M 9.128906 -2.898438 C 6.632812 -2.898438 4.808594 -4.765625 4.808594 -7.375 C 4.808594 -9.992188 6.632812 -11.863281 9.128906 -11.863281 C 11.679688 -11.863281 13.492188 -9.992188 13.492188 -7.375 C 13.492188 -4.765625 11.679688 -2.898438 9.128906 -2.898438 Z M 9.128906 -2.898438 "/></g></g><g transform="translate(228.557708, 80.205542)"><g><path d="M 4.933594 0 C 5.308594 0 5.503906 -0.195312 5.503906 -0.570312 L 5.503906 -7.957031 C 5.503906 -10.480469 6.550781 -11.792969 8.40625 -11.792969 C 8.699219 -11.792969 9.085938 -11.75 9.519531 -11.652344 C 9.882812 -11.570312 10.132812 -11.695312 10.21875 -12.042969 L 10.773438 -14.175781 C 10.859375 -14.511719 10.734375 -14.773438 10.398438 -14.871094 C 9.9375 -14.996094 9.476562 -15.066406 9.074219 -15.066406 C 7.582031 -15.066406 6.0625 -14.398438 5.03125 -12.699219 L 4.640625 -14.257812 C 4.558594 -14.605469 4.335938 -14.761719 4.015625 -14.761719 L 2.46875 -14.761719 C 2.105469 -14.761719 1.894531 -14.550781 1.894531 -14.1875 L 1.910156 -0.570312 C 1.910156 -0.195312 2.117188 0 2.480469 0 Z M 4.933594 0 "/></g></g><g transform="translate(239.97321, 80.205542)"><g><path d="M 7.386719 0.320312 C 8.097656 0.320312 8.835938 0.25 9.644531 0 C 10.007812 -0.113281 10.121094 -0.402344 10.007812 -0.738281 L 9.519531 -2.496094 C 9.410156 -2.84375 9.15625 -2.96875 8.796875 -2.855469 C 8.433594 -2.746094 8.097656 -2.703125 7.820312 -2.703125 C 6.925781 -2.703125 6.355469 -3.207031 6.355469 -4.390625 L 6.355469 -11.832031 L 9.101562 -11.832031 C 9.476562 -11.832031 9.671875 -12.027344 9.671875 -12.40625 L 9.671875 -14.1875 C 9.671875 -14.550781 9.476562 -14.761719 9.101562 -14.761719 L 6.355469 -14.761719 L 6.355469 -19.179688 C 6.355469 -19.554688 6.148438 -19.75 5.785156 -19.75 L 3.332031 -19.75 C 2.953125 -19.75 2.761719 -19.554688 2.761719 -19.179688 L 2.761719 -14.761719 L 1.535156 -14.761719 C 1.15625 -14.761719 0.960938 -14.550781 0.960938 -14.1875 L 0.960938 -12.40625 C 0.960938 -12.027344 1.15625 -11.832031 1.535156 -11.832031 L 2.761719 -11.832031 L 2.761719 -3.972656 C 2.761719 -1.183594 4.667969 0.320312 7.386719 0.320312 Z M 7.386719 0.320312 "/></g></g><g transform="translate(251.026316, 80.205542)"><g><path d="M 7.511719 -15.066406 C 5.882812 -15.066406 4.125 -14.761719 2.46875 -14.21875 C 2.117188 -14.089844 1.980469 -13.855469 2.105469 -13.492188 L 2.691406 -11.652344 C 2.800781 -11.289062 3.050781 -11.191406 3.414062 -11.316406 C 4.695312 -11.792969 6.035156 -12.097656 7.191406 -12.097656 C 8.921875 -12.097656 10.230469 -11.414062 10.230469 -9.507812 L 10.230469 -8.570312 C 9.171875 -8.835938 8.125 -8.976562 7.136719 -8.976562 C 3.820312 -8.976562 1.242188 -7.386719 1.242188 -4.210938 C 1.242188 -1.144531 3.582031 0.320312 6.203125 0.320312 C 7.792969 0.320312 9.5625 -0.210938 10.746094 -1.8125 L 11.09375 -0.5 C 11.164062 -0.152344 11.386719 0 11.722656 0 L 13.253906 0 C 13.632812 0 13.828125 -0.195312 13.828125 -0.570312 L 13.828125 -9.660156 C 13.828125 -13.605469 10.984375 -15.066406 7.511719 -15.066406 Z M 7.066406 -2.300781 C 5.867188 -2.300781 4.835938 -2.914062 4.835938 -4.265625 C 4.835938 -5.828125 6.1875 -6.441406 7.972656 -6.441406 C 8.699219 -6.441406 9.449219 -6.34375 10.230469 -6.160156 L 10.230469 -5.535156 C 10.230469 -3.109375 8.390625 -2.300781 7.066406 -2.300781 Z M 7.066406 -2.300781 "/></g></g><g transform="translate(266.63726, 80.205542)"><g><path d="M 9.535156 -21.480469 C 8.835938 -21.660156 8.195312 -21.730469 7.597656 -21.730469 C 4.570312 -21.730469 2.59375 -20.113281 2.59375 -16.726562 L 2.59375 -14.761719 L 1.660156 -14.761719 C 1.28125 -14.761719 1.085938 -14.550781 1.085938 -14.1875 L 1.085938 -12.40625 C 1.085938 -12.027344 1.28125 -11.832031 1.660156 -11.832031 L 2.59375 -11.832031 L 2.59375 -0.570312 C 2.59375 -0.195312 2.800781 0 3.164062 0 L 5.617188 0 C 5.992188 0 6.1875 -0.195312 6.1875 -0.570312 L 6.1875 -11.832031 L 8.238281 -11.832031 C 8.601562 -11.832031 8.808594 -12.027344 8.808594 -12.40625 L 8.808594 -14.1875 C 8.808594 -14.550781 8.601562 -14.761719 8.238281 -14.761719 L 6.1875 -14.761719 L 6.1875 -17.019531 C 6.1875 -18.285156 6.886719 -18.84375 7.917969 -18.84375 C 8.195312 -18.84375 8.515625 -18.804688 8.863281 -18.691406 C 9.199219 -18.609375 9.4375 -18.746094 9.535156 -19.09375 L 9.910156 -20.769531 C 9.992188 -21.128906 9.882812 -21.367188 9.535156 -21.480469 Z M 9.535156 -21.480469 "/></g></g><g transform="translate(276.296531, 80.205542)"><g><path d="M 9.128906 0.320312 C 13.660156 0.320312 17.074219 -2.855469 17.074219 -7.375 C 17.074219 -11.902344 13.660156 -15.066406 9.128906 -15.066406 C 4.640625 -15.066406 1.226562 -11.902344 1.226562 -7.375 C 1.226562 -2.855469 4.640625 0.320312 9.128906 0.320312 Z M 9.128906 -2.898438 C 6.632812 -2.898438 4.808594 -4.765625 4.808594 -7.375 C 4.808594 -9.992188 6.632812 -11.863281 9.128906 -11.863281 C 11.679688 -11.863281 13.492188 -9.992188 13.492188 -7.375 C 13.492188 -4.765625 11.679688 -2.898438 9.128906 -2.898438 Z M 9.128906 -2.898438 "/></g></g><g transform="translate(294.611513, 80.205542)"><g><path d="M 6.441406 0.320312 C 7.136719 0.320312 7.890625 0.277344 8.699219 0 C 9.03125 -0.125 9.15625 -0.402344 9.046875 -0.738281 L 8.558594 -2.496094 C 8.445312 -2.84375 8.210938 -2.96875 7.832031 -2.855469 C 7.484375 -2.746094 7.136719 -2.703125 6.871094 -2.703125 C 5.964844 -2.703125 5.394531 -3.207031 5.394531 -4.390625 L 5.394531 -20.835938 C 5.394531 -21.214844 5.199219 -21.410156 4.824219 -21.410156 L 2.371094 -21.410156 C 1.992188 -21.410156 1.796875 -21.214844 1.796875 -20.835938 L 1.796875 -3.972656 C 1.796875 -1.183594 3.707031 0.320312 6.441406 0.320312 Z M 6.441406 0.320312 "/></g></g><g transform="translate(304.354414, 80.205542)"><g><path d="M 3.695312 -16.183594 C 4.949219 -16.183594 5.882812 -17.128906 5.882812 -18.382812 C 5.882812 -19.625 4.949219 -20.601562 3.695312 -20.601562 C 2.4375 -20.601562 1.492188 -19.625 1.492188 -18.382812 C 1.492188 -17.128906 2.4375 -16.183594 3.695312 -16.183594 Z M 4.933594 0 C 5.308594 0 5.503906 -0.195312 5.503906 -0.570312 L 5.503906 -14.1875 C 5.503906 -14.550781 5.308594 -14.761719 4.933594 -14.761719 L 2.480469 -14.761719 C 2.117188 -14.761719 1.910156 -14.550781 1.910156 -14.1875 L 1.910156 -0.570312 C 1.910156 -0.195312 2.117188 0 2.480469 0 Z M 4.933594 0 "/></g></g><g transform="translate(311.797489, 80.205542)"><g><path d="M 9.128906 0.320312 C 13.660156 0.320312 17.074219 -2.855469 17.074219 -7.375 C 17.074219 -11.902344 13.660156 -15.066406 9.128906 -15.066406 C 4.640625 -15.066406 1.226562 -11.902344 1.226562 -7.375 C 1.226562 -2.855469 4.640625 0.320312 9.128906 0.320312 Z M 9.128906 -2.898438 C 6.632812 -2.898438 4.808594 -4.765625 4.808594 -7.375 C 4.808594 -9.992188 6.632812 -11.863281 9.128906 -11.863281 C 11.679688 -11.863281 13.492188 -9.992188 13.492188 -7.375 C 13.492188 -4.765625 11.679688 -2.898438 9.128906 -2.898438 Z M 9.128906 -2.898438 "/></g></g></g><g fill="#000000" fill-opacity="1"><g transform="translate(330.112471, 80.205542)"><g><path d="M 17.464844 2.855469 C 17.839844 2.855469 18.035156 2.648438 18.035156 2.285156 L 18.035156 0.570312 C 18.035156 0.195312 17.839844 0 17.464844 0 L 2.691406 0 C 2.3125 0 2.117188 0.195312 2.117188 0.570312 L 2.117188 2.285156 C 2.117188 2.648438 2.3125 2.855469 2.691406 2.855469 Z M 17.464844 2.855469 "/></g></g></g></svg>