<svg xmlns="http://www.w3.org/2000/svg" xmlns:xlink="http://www.w3.org/1999/xlink" width="531" zoomAndPan="magnify" viewBox="0 0 398.25 139.500001" height="186" preserveAspectRatio="xMidYMid meet" version="1.0"><defs><g/><clipPath id="8587e1ed4e"><path d="M 0.335938 0 L 397.164062 0 L 397.164062 139 L 0.335938 139 Z M 0.335938 0 " clip-rule="nonzero"/></clipPath><clipPath id="9ddfb6cfca"><path d="M 53 25.765625 L 92 25.765625 L 92 113.203125 L 53 113.203125 Z M 53 25.765625 " clip-rule="nonzero"/></clipPath><clipPath id="19814874f6"><path d="M 3.832031 38 L 42 38 L 42 101 L 3.832031 101 Z M 3.832031 38 " clip-rule="nonzero"/></clipPath><clipPath id="0069808c86"><path d="M 103 38 L 141.339844 38 L 141.339844 101 L 103 101 Z M 103 38 " clip-rule="nonzero"/></clipPath></defs><g clip-path="url(#8587e1ed4e)"><path fill="#ffffff" d="M 0.335938 0 L 397.914062 0 L 397.914062 146.476562 L 0.335938 146.476562 Z M 0.335938 0 " fill-opacity="1" fill-rule="nonzero"/><path fill="#ffffff" d="M 0.335938 0 L 397.164062 0 L 397.164062 139 L 0.335938 139 Z M 0.335938 0 " fill-opacity="1" fill-rule="nonzero"/><path fill="#ffffff" d="M 0.335938 0 L 397.164062 0 L 397.164062 139 L 0.335938 139 Z M 0.335938 0 " fill-opacity="1" fill-rule="nonzero"/></g><g clip-path="url(#9ddfb6cfca)"><path fill="#15aad0" d="M 87.058594 26.085938 C 86.425781 25.890625 85.742188 25.765625 85.082031 25.765625 C 82.398438 25.765625 80.003906 27.5 79.152344 30.035156 L 54.15625 104.984375 C 53.9375 105.617188 53.839844 106.277344 53.839844 106.957031 C 53.839844 110.398438 56.671875 113.203125 60.085938 113.203125 C 62.773438 113.203125 65.164062 111.472656 66.019531 108.933594 L 91.011719 33.988281 C 91.234375 33.355469 91.332031 32.671875 91.332031 32.011719 C 91.332031 29.328125 89.597656 26.9375 87.058594 26.085938 " fill-opacity="1" fill-rule="nonzero"/></g><g clip-path="url(#19814874f6)"><path fill="#15aad0" d="M 39.511719 40.089844 C 38.339844 38.917969 36.753906 38.257812 35.09375 38.257812 C 33.433594 38.257812 31.847656 38.917969 30.675781 40.089844 L 5.679688 65.070312 C 4.507812 66.242188 3.847656 67.828125 3.847656 69.484375 C 3.847656 71.144531 4.507812 72.730469 5.679688 73.902344 L 30.675781 98.882812 C 31.847656 100.003906 33.40625 100.640625 35.019531 100.640625 C 38.4375 100.640625 41.269531 97.808594 41.269531 94.394531 C 41.269531 92.785156 40.632812 91.222656 39.511719 90.050781 L 18.933594 69.484375 L 39.511719 48.917969 C 40.683594 47.75 41.339844 46.164062 41.339844 44.503906 C 41.339844 42.84375 40.683594 41.257812 39.511719 40.089844 " fill-opacity="1" fill-rule="nonzero"/></g><g clip-path="url(#0069808c86)"><path fill="#15aad0" d="M 139.488281 65.070312 L 114.496094 40.089844 C 113.324219 38.964844 111.761719 38.332031 110.148438 38.332031 C 106.734375 38.332031 103.902344 41.160156 103.902344 44.578125 C 103.902344 46.1875 104.535156 47.75 105.660156 48.917969 L 126.234375 69.484375 L 105.660156 90.050781 C 104.4375 91.222656 103.753906 92.859375 103.753906 94.539062 C 103.753906 97.980469 106.5625 100.785156 110.003906 100.785156 C 111.6875 100.785156 113.324219 100.101562 114.496094 98.882812 L 139.488281 73.902344 C 140.660156 72.730469 141.320312 71.144531 141.320312 69.484375 C 141.320312 67.828125 140.660156 66.242188 139.488281 65.070312 " fill-opacity="1" fill-rule="nonzero"/></g><g fill="#000000" fill-opacity="1"><g transform="translate(141.303231, 82.963611)"><g><path d="M 6.820312 0 C 7.292969 0 7.539062 -0.246094 7.539062 -0.71875 L 7.539062 -15.003906 L 15.179688 -5.066406 C 15.496094 -4.644531 15.882812 -4.644531 16.199219 -5.066406 L 23.875 -15.039062 L 23.875 -0.71875 C 23.875 -0.246094 24.121094 0 24.59375 0 L 27.996094 0 C 28.46875 0 28.714844 -0.246094 28.714844 -0.71875 L 28.714844 -26.347656 C 28.714844 -27.695312 27.765625 -27.996094 26.960938 -26.925781 L 15.6875 -12.023438 L 4.453125 -26.925781 C 3.628906 -28.011719 2.699219 -27.695312 2.699219 -26.347656 L 2.699219 -0.71875 C 2.699219 -0.246094 2.945312 0 3.417969 0 Z M 6.820312 0 "/></g></g><g transform="translate(172.716241, 82.963611)"><g><path d="M 4.644531 -20.351562 C 6.222656 -20.351562 7.398438 -21.542969 7.398438 -23.121094 C 7.398438 -24.683594 6.222656 -25.910156 4.644531 -25.910156 C 3.066406 -25.910156 1.875 -24.683594 1.875 -23.121094 C 1.875 -21.542969 3.066406 -20.351562 4.644531 -20.351562 Z M 6.207031 0 C 6.679688 0 6.925781 -0.246094 6.925781 -0.71875 L 6.925781 -17.84375 C 6.925781 -18.300781 6.679688 -18.5625 6.207031 -18.5625 L 3.121094 -18.5625 C 2.664062 -18.5625 2.402344 -18.300781 2.402344 -17.84375 L 2.402344 -0.71875 C 2.402344 -0.246094 2.664062 0 3.121094 0 Z M 6.207031 0 "/></g></g><g transform="translate(182.077038, 82.963611)"><g/></g><g transform="translate(192.840201, 82.963611)"><g><path d="M 6.871094 0 C 7.34375 0 7.589844 -0.246094 7.589844 -0.71875 L 7.589844 -8.730469 L 12.832031 -8.730469 C 19.003906 -8.730469 22.316406 -12.007812 22.316406 -17.933594 C 22.316406 -23.347656 19.527344 -26.925781 12.113281 -26.925781 L 3.382812 -26.925781 C 2.910156 -26.925781 2.664062 -26.679688 2.664062 -26.207031 L 2.664062 -0.71875 C 2.664062 -0.246094 2.910156 0 3.382812 0 Z M 7.589844 -22.5625 L 11.480469 -22.5625 C 13.410156 -22.5625 17.425781 -22.527344 17.425781 -17.898438 C 17.425781 -13.128906 13.199219 -13.078125 11.480469 -13.078125 L 7.589844 -13.078125 Z M 7.589844 -22.5625 "/></g></g><g transform="translate(216.452547, 82.963611)"><g><path d="M 11.480469 0.402344 C 17.179688 0.402344 21.472656 -3.59375 21.472656 -9.273438 C 21.472656 -14.96875 17.179688 -18.949219 11.480469 -18.949219 C 5.835938 -18.949219 1.542969 -14.96875 1.542969 -9.273438 C 1.542969 -3.59375 5.835938 0.402344 11.480469 0.402344 Z M 11.480469 -3.644531 C 8.34375 -3.644531 6.046875 -5.996094 6.046875 -9.273438 C 6.046875 -12.570312 8.34375 -14.917969 11.480469 -14.917969 C 14.691406 -14.917969 16.96875 -12.570312 16.96875 -9.273438 C 16.96875 -5.996094 14.691406 -3.644531 11.480469 -3.644531 Z M 11.480469 -3.644531 "/></g></g><g transform="translate(239.486417, 82.963611)"><g><path d="M 6.207031 0 C 6.679688 0 6.925781 -0.246094 6.925781 -0.71875 L 6.925781 -10.007812 C 6.925781 -13.183594 8.238281 -14.828125 10.570312 -14.828125 C 10.9375 -14.828125 11.429688 -14.777344 11.972656 -14.65625 C 12.429688 -14.550781 12.742188 -14.707031 12.847656 -15.144531 L 13.550781 -17.828125 C 13.65625 -18.25 13.496094 -18.582031 13.078125 -18.703125 C 12.5 -18.863281 11.921875 -18.949219 11.410156 -18.949219 C 9.535156 -18.949219 7.625 -18.109375 6.328125 -15.96875 L 5.835938 -17.933594 C 5.730469 -18.371094 5.453125 -18.5625 5.046875 -18.5625 L 3.101562 -18.5625 C 2.648438 -18.5625 2.382812 -18.300781 2.382812 -17.84375 L 2.402344 -0.71875 C 2.402344 -0.246094 2.664062 0 3.121094 0 Z M 6.207031 0 "/></g></g><g transform="translate(253.843145, 82.963611)"><g><path d="M 9.289062 0.402344 C 10.183594 0.402344 11.113281 0.316406 12.128906 0 C 12.585938 -0.140625 12.726562 -0.507812 12.585938 -0.929688 L 11.972656 -3.136719 C 11.832031 -3.574219 11.515625 -3.734375 11.0625 -3.59375 C 10.605469 -3.453125 10.183594 -3.402344 9.835938 -3.402344 C 8.710938 -3.402344 7.992188 -4.03125 7.992188 -5.523438 L 7.992188 -14.882812 L 11.445312 -14.882812 C 11.921875 -14.882812 12.164062 -15.128906 12.164062 -15.601562 L 12.164062 -17.84375 C 12.164062 -18.300781 11.921875 -18.5625 11.445312 -18.5625 L 7.992188 -18.5625 L 7.992188 -24.121094 C 7.992188 -24.59375 7.730469 -24.839844 7.273438 -24.839844 L 4.191406 -24.839844 C 3.714844 -24.839844 3.472656 -24.59375 3.472656 -24.121094 L 3.472656 -18.5625 L 1.929688 -18.5625 C 1.453125 -18.5625 1.210938 -18.300781 1.210938 -17.84375 L 1.210938 -15.601562 C 1.210938 -15.128906 1.453125 -14.882812 1.929688 -14.882812 L 3.472656 -14.882812 L 3.472656 -4.996094 C 3.472656 -1.488281 5.871094 0.402344 9.289062 0.402344 Z M 9.289062 0.402344 "/></g></g><g transform="translate(267.744103, 82.963611)"><g><path d="M 9.449219 -18.949219 C 7.398438 -18.949219 5.1875 -18.5625 3.101562 -17.878906 C 2.664062 -17.722656 2.488281 -17.425781 2.648438 -16.96875 L 3.382812 -14.65625 C 3.523438 -14.199219 3.839844 -14.078125 4.292969 -14.234375 C 5.90625 -14.828125 7.589844 -15.214844 9.046875 -15.214844 C 11.21875 -15.214844 12.867188 -14.355469 12.867188 -11.957031 L 12.867188 -10.78125 C 11.535156 -11.113281 10.21875 -11.289062 8.976562 -11.289062 C 4.804688 -11.289062 1.558594 -9.289062 1.558594 -5.292969 C 1.558594 -1.4375 4.503906 0.402344 7.800781 0.402344 C 9.800781 0.402344 12.023438 -0.261719 13.515625 -2.277344 L 13.953125 -0.632812 C 14.042969 -0.191406 14.320312 0 14.742188 0 L 16.671875 0 C 17.144531 0 17.390625 -0.246094 17.390625 -0.71875 L 17.390625 -12.148438 C 17.390625 -17.109375 13.8125 -18.949219 9.449219 -18.949219 Z M 8.886719 -2.890625 C 7.378906 -2.890625 6.082031 -3.664062 6.082031 -5.363281 C 6.082031 -7.328125 7.78125 -8.097656 10.027344 -8.097656 C 10.9375 -8.097656 11.886719 -7.976562 12.867188 -7.75 L 12.867188 -6.960938 C 12.867188 -3.910156 10.554688 -2.890625 8.886719 -2.890625 Z M 8.886719 -2.890625 "/></g></g><g transform="translate(287.377234, 82.963611)"><g><path d="M 11.988281 -27.011719 C 11.113281 -27.242188 10.308594 -27.328125 9.554688 -27.328125 C 5.75 -27.328125 3.261719 -25.296875 3.261719 -21.035156 L 3.261719 -18.5625 L 2.085938 -18.5625 C 1.613281 -18.5625 1.367188 -18.300781 1.367188 -17.84375 L 1.367188 -15.601562 C 1.367188 -15.128906 1.613281 -14.882812 2.085938 -14.882812 L 3.261719 -14.882812 L 3.261719 -0.71875 C 3.261719 -0.246094 3.523438 0 3.980469 0 L 7.0625 0 C 7.539062 0 7.78125 -0.246094 7.78125 -0.71875 L 7.78125 -14.882812 L 10.359375 -14.882812 C 10.816406 -14.882812 11.078125 -15.128906 11.078125 -15.601562 L 11.078125 -17.84375 C 11.078125 -18.300781 10.816406 -18.5625 10.359375 -18.5625 L 7.78125 -18.5625 L 7.78125 -21.402344 C 7.78125 -23 8.660156 -23.699219 9.957031 -23.699219 C 10.308594 -23.699219 10.710938 -23.648438 11.148438 -23.507812 C 11.570312 -23.402344 11.867188 -23.578125 11.988281 -24.015625 L 12.464844 -26.117188 C 12.570312 -26.574219 12.429688 -26.871094 11.988281 -27.011719 Z M 11.988281 -27.011719 "/></g></g><g transform="translate(299.525234, 82.963611)"><g><path d="M 11.480469 0.402344 C 17.179688 0.402344 21.472656 -3.59375 21.472656 -9.273438 C 21.472656 -14.96875 17.179688 -18.949219 11.480469 -18.949219 C 5.835938 -18.949219 1.542969 -14.96875 1.542969 -9.273438 C 1.542969 -3.59375 5.835938 0.402344 11.480469 0.402344 Z M 11.480469 -3.644531 C 8.34375 -3.644531 6.046875 -5.996094 6.046875 -9.273438 C 6.046875 -12.570312 8.34375 -14.917969 11.480469 -14.917969 C 14.691406 -14.917969 16.96875 -12.570312 16.96875 -9.273438 C 16.96875 -5.996094 14.691406 -3.644531 11.480469 -3.644531 Z M 11.480469 -3.644531 "/></g></g><g transform="translate(322.559105, 82.963611)"><g><path d="M 8.097656 0.402344 C 8.976562 0.402344 9.921875 0.351562 10.9375 0 C 11.359375 -0.15625 11.515625 -0.507812 11.375 -0.929688 L 10.761719 -3.136719 C 10.621094 -3.574219 10.324219 -3.734375 9.851562 -3.59375 C 9.414062 -3.453125 8.976562 -3.402344 8.640625 -3.402344 C 7.503906 -3.402344 6.785156 -4.03125 6.785156 -5.523438 L 6.785156 -26.207031 C 6.785156 -26.679688 6.539062 -26.925781 6.066406 -26.925781 L 2.980469 -26.925781 C 2.507812 -26.925781 2.261719 -26.679688 2.261719 -26.207031 L 2.261719 -4.996094 C 2.261719 -1.488281 4.664062 0.402344 8.097656 0.402344 Z M 8.097656 0.402344 "/></g></g><g transform="translate(334.812282, 82.963611)"><g><path d="M 4.644531 -20.351562 C 6.222656 -20.351562 7.398438 -21.542969 7.398438 -23.121094 C 7.398438 -24.683594 6.222656 -25.910156 4.644531 -25.910156 C 3.066406 -25.910156 1.875 -24.683594 1.875 -23.121094 C 1.875 -21.542969 3.066406 -20.351562 4.644531 -20.351562 Z M 6.207031 0 C 6.679688 0 6.925781 -0.246094 6.925781 -0.71875 L 6.925781 -17.84375 C 6.925781 -18.300781 6.679688 -18.5625 6.207031 -18.5625 L 3.121094 -18.5625 C 2.664062 -18.5625 2.402344 -18.300781 2.402344 -17.84375 L 2.402344 -0.71875 C 2.402344 -0.246094 2.664062 0 3.121094 0 Z M 6.207031 0 "/></g></g><g transform="translate(344.173079, 82.963611)"><g><path d="M 11.480469 0.402344 C 17.179688 0.402344 21.472656 -3.59375 21.472656 -9.273438 C 21.472656 -14.96875 17.179688 -18.949219 11.480469 -18.949219 C 5.835938 -18.949219 1.542969 -14.96875 1.542969 -9.273438 C 1.542969 -3.59375 5.835938 0.402344 11.480469 0.402344 Z M 11.480469 -3.644531 C 8.34375 -3.644531 6.046875 -5.996094 6.046875 -9.273438 C 6.046875 -12.570312 8.34375 -14.917969 11.480469 -14.917969 C 14.691406 -14.917969 16.96875 -12.570312 16.96875 -9.273438 C 16.96875 -5.996094 14.691406 -3.644531 11.480469 -3.644531 Z M 11.480469 -3.644531 "/></g></g></g><g fill="#000000" fill-opacity="1"><g transform="translate(367.206949, 82.963611)"><g><path d="M 21.964844 3.59375 C 22.4375 3.59375 22.683594 3.332031 22.683594 2.875 L 22.683594 0.71875 C 22.683594 0.246094 22.4375 0 21.964844 0 L 3.382812 0 C 2.910156 0 2.664062 0.246094 2.664062 0.71875 L 2.664062 2.875 C 2.664062 3.332031 2.910156 3.59375 3.382812 3.59375 Z M 21.964844 3.59375 "/></g></g></g></svg>